<?xml version="1.0"?>
<svg x="0" y="0" width="675.0" height="1080.0">
  <rect x="0" y="0" width="675.0" height="1080.0" style="fill:#ffffe6;"/>
  <text x="45.0" y="45.0" style="fill:black;font-size:32px;font-weight:bold;">parser</text>
  <rect x="90.0" y="225.0" width="540.0" height="810.0" rx="12.0" ry="12.0" style="fill:none;stroke:black;stroke-width:1;"/>
  <text x="95.0" y="240.0" style="fill:black;font-size:16px;font-weight:bold;">parser</text>
  <rect x="135.0" y="270.0" width="450.0" height="720.0" rx="12.0" ry="12.0" style="fill:none;stroke:black;stroke-width:1;"/>
  <text x="140.0" y="285.0" style="fill:black;font-size:16px;font-weight:bold;">idle</text>
  <line x1="157.5" y1="157.5" x2="157.5" y2="225.0" style="stroke:black;stroke-width:1;"/>
  <line x1="150.0" y1="217.5" x2="157.5" y2="225.0" style="stroke:black;stroke-width:1;"/>
  <line x1="157.5" y1="225.0" x2="165.0" y2="217.5" style="stroke:black;stroke-width:1;"/>
  <circle cx="157.5" cy="157.5" r="5.625" style="fill:black;"/>
  <line x1="202.5" y1="157.5" x2="202.5" y2="270.0" style="stroke:black;stroke-width:1;"/>
  <line x1="195.0" y1="262.5" x2="202.5" y2="270.0" style="stroke:black;stroke-width:1;"/>
  <line x1="202.5" y1="270.0" x2="210.0" y2="262.5" style="stroke:black;stroke-width:1;"/>
  <circle cx="202.5" cy="157.5" r="5.625" style="fill:black;"/>
  <rect x="225.0" y="360.0" width="135.0" height="135.0" rx="12.0" ry="12.0" style="fill:none;stroke:black;stroke-width:1;"/>
  <text x="230.0" y="375.0" style="fill:black;font-size:16px;font-weight:bold;">WaitNextChar</text>
  <line x1="135.0" y1="315.0" x2="292.5" y2="315.0" style="stroke:black;stroke-width:1;"/>
  <text x="143.0" y="311.0" style="fill:black;font-size:14px;text-anchor:start;">NextChar</text>
  <line x1="292.5" y1="315.0" x2="292.5" y2="360.0" style="stroke:black;stroke-width:1;"/>
  <text x="143.0" y="311.0" style="fill:black;font-size:14px;text-anchor:start;">NextChar</text>
  <line x1="285.0" y1="352.5" x2="292.5" y2="360.0" style="stroke:black;stroke-width:1;"/>
  <line x1="292.5" y1="360.0" x2="300.0" y2="352.5" style="stroke:black;stroke-width:1;"/>
  <rect x="405.0" y="360.0" width="135.0" height="135.0" rx="12.0" ry="12.0" style="fill:none;stroke:black;stroke-width:1;"/>
  <text x="410.0" y="375.0" style="fill:black;font-size:16px;font-weight:bold;">Stop</text>
  <line x1="360.0" y1="427.5" x2="405.0" y2="427.5" style="stroke:black;stroke-width:1;"/>
  <text x="368.0" y="423.5" style="fill:black;font-size:14px;text-anchor:start;">EOL</text>
  <line x1="397.5" y1="420.0" x2="405.0" y2="427.5" style="stroke:black;stroke-width:1;"/>
  <line x1="405.0" y1="427.5" x2="397.5" y2="435.0" style="stroke:black;stroke-width:1;"/>
  <rect x="225.0" y="585.0" width="135.0" height="135.0" rx="12.0" ry="12.0" style="fill:none;stroke:black;stroke-width:1;"/>
  <text x="230.0" y="600.0" style="fill:black;font-size:16px;font-weight:bold;">AccumulateToken</text>
  <line x1="270.0" y1="495.0" x2="270.0" y2="585.0" style="stroke:black;stroke-width:1;"/>
  <text x="274.0" y="503.0" style="fill:black;font-size:14px;text-anchor:start;" transform="rotate(90 274.0 503.0)">ValidChar</text>
  <line x1="262.5" y1="577.5" x2="270.0" y2="585.0" style="stroke:black;stroke-width:1;"/>
  <line x1="270.0" y1="585.0" x2="277.5" y2="577.5" style="stroke:black;stroke-width:1;"/>
  <rect x="405.0" y="585.0" width="135.0" height="135.0" rx="12.0" ry="12.0" style="fill:none;stroke:black;stroke-width:1;"/>
  <text x="410.0" y="600.0" style="fill:black;font-size:16px;font-weight:bold;">AccumulateKeyword</text>
  <line x1="315.0" y1="495.0" x2="315.0" y2="540.0" style="stroke:black;stroke-width:1;"/>
  <text x="319.0" y="503.0" style="fill:black;font-size:14px;text-anchor:start;" transform="rotate(90 319.0 503.0)">KeywordChar</text>
  <line x1="315.0" y1="540.0" x2="450.0" y2="540.0" style="stroke:black;stroke-width:1;"/>
  <text x="319.0" y="503.0" style="fill:black;font-size:14px;text-anchor:start;" transform="rotate(90 319.0 503.0)">KeywordChar</text>
  <line x1="450.0" y1="540.0" x2="450.0" y2="585.0" style="stroke:black;stroke-width:1;"/>
  <text x="319.0" y="503.0" style="fill:black;font-size:14px;text-anchor:start;" transform="rotate(90 319.0 503.0)">KeywordChar</text>
  <line x1="442.5" y1="577.5" x2="450.0" y2="585.0" style="stroke:black;stroke-width:1;"/>
  <line x1="450.0" y1="585.0" x2="457.5" y2="577.5" style="stroke:black;stroke-width:1;"/>
  <rect x="225.0" y="810.0" width="135.0" height="135.0" rx="12.0" ry="12.0" style="fill:none;stroke:black;stroke-width:1;"/>
  <text x="230.0" y="825.0" style="fill:black;font-size:16px;font-weight:bold;">EndToken</text>
  <line x1="292.5" y1="720.0" x2="292.5" y2="810.0" style="stroke:black;stroke-width:1;"/>
  <text x="296.5" y="728.0" style="fill:black;font-size:14px;text-anchor:start;" transform="rotate(90 296.5 728.0)">EOL,KeywordChar,InvisibleChar</text>
  <line x1="285.0" y1="802.5" x2="292.5" y2="810.0" style="stroke:black;stroke-width:1;"/>
  <line x1="292.5" y1="810.0" x2="300.0" y2="802.5" style="stroke:black;stroke-width:1;"/>
  <line x1="472.5" y1="720.0" x2="472.5" y2="877.5" style="stroke:black;stroke-width:1;"/>
  <text x="476.5" y="728.0" style="fill:black;font-size:14px;text-anchor:start;" transform="rotate(90 476.5 728.0)">ValidChar,EOL,InvisibleChar</text>
  <line x1="472.5" y1="877.5" x2="360.0" y2="877.5" style="stroke:black;stroke-width:1;"/>
  <text x="476.5" y="728.0" style="fill:black;font-size:14px;text-anchor:start;" transform="rotate(90 476.5 728.0)">ValidChar,EOL,InvisibleChar</text>
  <line x1="367.5" y1="870.0" x2="360.0" y2="877.5" style="stroke:black;stroke-width:1;"/>
  <line x1="360.0" y1="877.5" x2="367.5" y2="885.0" style="stroke:black;stroke-width:1;"/>
  <line x1="225.0" y1="877.5" x2="180.0" y2="877.5" style="stroke:black;stroke-width:1;"/>
  <text x="217.0" y="873.5" style="fill:black;font-size:14px;text-anchor:end;">NextChar</text>
  <line x1="180.0" y1="877.5" x2="180.0" y2="427.5" style="stroke:black;stroke-width:1;"/>
  <text x="217.0" y="873.5" style="fill:black;font-size:14px;text-anchor:end;">NextChar</text>
  <line x1="180.0" y1="427.5" x2="225.0" y2="427.5" style="stroke:black;stroke-width:1;"/>
  <text x="217.0" y="873.5" style="fill:black;font-size:14px;text-anchor:end;">NextChar</text>
  <line x1="217.5" y1="420.0" x2="225.0" y2="427.5" style="stroke:black;stroke-width:1;"/>
  <line x1="225.0" y1="427.5" x2="217.5" y2="435.0" style="stroke:black;stroke-width:1;"/>
  <line x1="472.5" y1="360.0" x2="472.5" y2="225.0" style="stroke:black;stroke-width:1;"/>
  <text x="468.5" y="352.0" style="fill:black;font-size:14px;text-anchor:start;" transform="rotate(-90 468.5 352.0)">Reset</text>
  <line x1="465.0" y1="232.5" x2="472.5" y2="225.0" style="stroke:black;stroke-width:1;"/>
  <line x1="472.5" y1="225.0" x2="480.0" y2="232.5" style="stroke:black;stroke-width:1;"/>
  <line x1="337.5" y1="720.0" x2="337.5" y2="652.5" style="stroke:black;stroke-width:1;"/>
  <text x="333.5" y="712.0" style="fill:black;font-size:14px;text-anchor:start;" transform="rotate(-90 333.5 712.0)">ValidChar</text>
  <line x1="337.5" y1="652.5" x2="360.0" y2="652.5" style="stroke:black;stroke-width:1;"/>
  <text x="333.5" y="712.0" style="fill:black;font-size:14px;text-anchor:start;" transform="rotate(-90 333.5 712.0)">ValidChar</text>
  <line x1="352.5" y1="645.0" x2="360.0" y2="652.5" style="stroke:black;stroke-width:1;"/>
  <line x1="360.0" y1="652.5" x2="352.5" y2="660.0" style="stroke:black;stroke-width:1;"/>
  <line x1="517.5" y1="720.0" x2="517.5" y2="630.0" style="stroke:black;stroke-width:1;"/>
  <text x="513.5" y="712.0" style="fill:black;font-size:14px;text-anchor:start;" transform="rotate(-90 513.5 712.0)">KeywordChar</text>
  <line x1="517.5" y1="630.0" x2="540.0" y2="630.0" style="stroke:black;stroke-width:1;"/>
  <text x="513.5" y="712.0" style="fill:black;font-size:14px;text-anchor:start;" transform="rotate(-90 513.5 712.0)">KeywordChar</text>
  <line x1="532.5" y1="622.5" x2="540.0" y2="630.0" style="stroke:black;stroke-width:1;"/>
  <line x1="540.0" y1="630.0" x2="532.5" y2="637.5" style="stroke:black;stroke-width:1;"/>
</svg>